<svg xmlns="http://www.w3.org/2000/svg" width="144" height="144" viewBox="0 0 144 144"><rect width="144" height="144" rx="22" fill="#13151b"/><path d="M14,20 L128,128" stroke="#3b3b46" stroke-width="2.5" stroke-linecap="round" opacity="0.6"/><g transform="translate(98,46) scale(0.48) translate(-72,-70)"><!-- saw-lead mono synth (hard-sync lead) -->
  <rect x="16" y="44" width="112" height="54" rx="7" fill="#26262c"/>
  <g fill="#3a3a44"><circle cx="30" cy="56" r="4.5"/><circle cx="44" cy="56" r="4.5"/><circle cx="58" cy="56" r="4.5"/></g>
  <g stroke="#ff6a3d" stroke-width="1.4"><line x1="30" y1="52" x2="30" y2="56"/><line x1="44" y1="60" x2="44" y2="56"/><line x1="58" y1="53" x2="58" y2="56"/></g>
  <rect x="70" y="50" width="52" height="24" rx="2" fill="#241014"/>
  <path d="M74 68 L82 54 L82 68 L90 54 L90 68 L98 54 L98 68 L106 54 L106 68 L114 54 L114 68 L118 60" fill="none" stroke="#ff6a3d" stroke-width="2"/>
  <rect x="16" y="80" width="112" height="16" rx="2" fill="#e6e6e6"/>
  <g fill="#26262c"><rect x="24" y="80" width="3.5" height="10"/><rect x="34" y="80" width="3.5" height="10"/><rect x="49" y="80" width="3.5" height="10"/><rect x="59" y="80" width="3.5" height="10"/><rect x="69" y="80" width="3.5" height="10"/><rect x="84" y="80" width="3.5" height="10"/><rect x="94" y="80" width="3.5" height="10"/><rect x="109" y="80" width="3.5" height="10"/><rect x="119" y="80" width="3.5" height="10"/></g>
  <rect x="16" y="82" width="6" height="12" rx="2" fill="#ff6a3d"/></g><g transform="translate(48,98) scale(0.48) translate(-72,-70)"><rect x="14" y="46" width="116" height="34" rx="4" fill="#2e2822"/>
  <g fill="#4a4034"><circle cx="24" cy="54" r="4"/><circle cx="36" cy="54" r="4"/><circle cx="48" cy="54" r="4"/></g>
  <rect x="70" y="50" width="52" height="20" rx="2" fill="#2e2408"/>
  <path d="M74 66 L74 54 L84 54 L84 66 L94 66 L94 54 L104 54 L104 66 L114 66 L114 54" fill="none" stroke="#f0b93a" stroke-width="2.4"/>
  <rect x="14" y="78" width="116" height="16" rx="2" fill="#e6e6e6"/>
  <g fill="#2e2822"><rect x="22" y="78" width="3.5" height="10"/><rect x="32" y="78" width="3.5" height="10"/><rect x="47" y="78" width="3.5" height="10"/><rect x="57" y="78" width="3.5" height="10"/><rect x="67" y="78" width="3.5" height="10"/><rect x="82" y="78" width="3.5" height="10"/><rect x="92" y="78" width="3.5" height="10"/><rect x="107" y="78" width="3.5" height="10"/><rect x="117" y="78" width="3.5" height="10"/></g>
  <rect x="16" y="80" width="6" height="12" rx="2" fill="#f0b93a"/></g></svg>